<?xml version="1.0" encoding="UTF-8"?>
<svg width="24px" height="20px" viewBox="0 0 24 20" version="1.1" xmlns="http://www.w3.org/2000/svg" xmlns:xlink="http://www.w3.org/1999/xlink">
    <!-- Generator: Sketch 53.2 (72643) - https://sketchapp.com -->
    <title>icon-twitter</title>
    <desc>Created with Sketch.</desc>
    <g id="Page-1" stroke="none" stroke-width="1" fill="none" fill-rule="evenodd">
        <g id="Outro" transform="translate(-134.000000, -642.000000)" fill="#282B40" fill-rule="nonzero">
            <g id="Group" transform="translate(120.000000, 363.000000)">
                <g id="Group-3" transform="translate(14.000000, 275.000000)">
                    <path d="M24,6.3359375 C23.1150668,6.73125 22.1691036,6.99821429 21.1722823,7.12142857 C22.1894469,6.50535714 22.9726637,5.52991071 23.338843,4.36964286 C22.387794,4.93950893 21.3350286,5.35535714 20.2110617,5.57611607 C19.3108709,4.60580357 18.0292435,4 16.6153846,4 C13.8944692,4 11.6923077,6.228125 11.6923077,8.97477679 C11.6923077,9.36495536 11.7329943,9.74486607 11.8194533,10.109375 C7.72536554,9.90401786 4.09408773,7.92232143 1.66815003,4.90870536 C1.2460267,5.64285714 1.00190718,6.50022321 1.00190718,7.40892857 C1.00190718,9.13392857 1.87666879,10.6587054 3.19898284,11.5520089 C2.38525111,11.5314732 1.62237762,11.3055804 0.961220598,10.9308036 L0.961220598,10.9924107 C0.961220598,13.4053571 2.65988557,15.4127232 4.91290528,15.8696429 C4.50095359,15.9825893 4.06357279,16.0441964 3.61602034,16.0441964 C3.3006993,16.0441964 2.99046408,16.0133929 2.69040051,15.9517857 C3.31595677,17.9283482 5.1366815,19.3658482 7.29307057,19.4069196 C5.60966306,20.7417411 3.48378894,21.5375 1.17482517,21.5375 C0.77813096,21.5375 0.386522568,21.5118304 0,21.465625 C2.17164654,22.8928571 4.76033058,23.7142857 7.53719008,23.7142857 C16.605213,23.7142857 21.5588048,16.1314732 21.5588048,9.55491071 C21.5588048,9.33928571 21.553719,9.12366071 21.5435474,8.91316964 C22.504768,8.20982143 23.338843,7.33705357 24,6.3359375 Z" id="icon-twitter"></path>
                </g>
            </g>
        </g>
    </g>
</svg>