<svg class="shadow" version="1.1" id="rs-logo" xmlns="http://www.w3.org/2000/svg" x="0" y="0" viewBox="0 0 595.3 504.9" xml:space="preserve">
        <style>
            .shadow {
                height: 128px;
                -webkit-filter: drop-shadow(0px 1px 1px #000000) drop-shadow(0px 4px 8px rgba(0, 0, 0, 0.15));
                filter: drop-shadow(0px 1px 1px #000000) drop-shadow(0px 4px 8px rgba(0, 0, 0, 0.15));
            }

            .st0,
            .st1,
            .st5 {
                fill-rule: evenodd;
                clip-rule: evenodd;
                fill: #e2c723
            }

            .st1,
            .st5 {
                fill: #bfb224
            }

            .st5 {
                fill: #ffe000
            }
        </style>
        <path class="st0" d="M547.4 198.1s-7.6-10.4-123.1-30l-8.9 66.4s51.6.8 107.7 22.5c0 0-13.2-18.8-26.7-43.4 0 0 17.8-5.6 51-15.5zM42 196.9s7.6-10.4 123.1-30l8.9 66.4s-51.6.8-107.7 22.5c0 0 13.2-18.8 26.7-43.4 0 0-17.7-5.5-51-15.5z"></path>
        <path class="st1" d="M471.7 227.4l-56.2 7-2.5-19.7c-.1.1 4.1-4.1 58.7 12.7zM117.2 226.9l57.6 7.3 1.5-16.4s-4.6-7.7-59.1 9.1z"></path>
        <path id="path3741_18_" d="M138.9 120.3c87.1-30.3 230-26.5 311.6 0 0 0 24.2 192.6-27.7 244.5C395.5 392.1 293.7 470 293.7 470s-101.8-77.8-129.2-105.3c-51.8-51.8-25.6-244.4-25.6-244.4z" fill="#ffe000"></path>
        <radialGradient id="path3374_1_" cx="294.29" cy="282.28" r="223.84" gradientUnits="userSpaceOnUse">
            <stop offset="0" stop-color="#ffe000"></stop>
            <stop offset=".25" stop-color="#fdde00"></stop>
            <stop offset=".39" stop-color="#f4d700"></stop>
            <stop offset=".51" stop-color="#e7cb00"></stop>
            <stop offset=".61" stop-color="#d3ba00"></stop>
            <stop offset=".7" stop-color="#b9a300"></stop>
            <stop offset=".78" stop-color="#9a8800"></stop>
            <stop offset=".86" stop-color="#746700"></stop>
            <stop offset=".93" stop-color="#4a4300"></stop>
            <stop offset="1" stop-color="#1d1b00"></stop>
        </radialGradient>
        <path id="path3374_12_" d="M296.9 113.9c-47.1-.5-95.2 2.5-143.7 18.4-1 7.9-5.5 42.6-5.6 90.8 0 26.7 1.4 54.8 5.9 78.7 4.6 23.9 12.7 43 21.9 52.2 12.1 12.1 44.7 38.8 73.4 61.6 23.9 19 38.4 30.1 44.9 35.1 6.5-5 21-16.2 44.9-35.1 28.7-22.8 61.3-49.5 73.4-61.6 9.2-9.2 17.5-28.3 22.3-52.2 4.8-23.9 6.4-52 6.6-78.7.4-48.1-3.9-82.7-4.9-90.8-46-14.1-92.3-17.9-139.1-18.4z" fill="url(#path3374_1_)"></path>
        <path d="M287.4 304.2a36.33 36.33 0 010-51.4 36.33 36.33 0 0151.4 0l34.3-34.3a84.8 84.8 0 00-119.9 0 84.8 84.8 0 000 119.9l34.2-34.2zm-34.2 34.2a36.33 36.33 0 0051.4 0 36.33 36.33 0 000-51.4l34.3-34.2a84.8 84.8 0 010 119.9 84.8 84.8 0 01-119.9 0l34.2-34.3z"></path>
        <path d="M117.6 226.4s186.3-31.9 354.1 1l-13.3-53.2-331 20-9.8 32.2z" opacity=".3" fill-rule="evenodd" clip-rule="evenodd"></path>
        <path class="st5" d="M243.5 57.4l-5.1 10.3-11.1 1.5 8.2 7.9-2 11.1 10.1-5.4 9.8 5.4-1.9-11.3 8.1-7.7-11.3-1.6-4.8-10.2zM341.8 57.4l5.1 10.3 11.1 1.5-8.2 7.9 2 11.1-10.1-5.4-9.8 5.4 1.9-11.3-8.1-7.7 11.3-1.6 4.8-10.2zM292.5 41.4l-7 14.3-15.5 2.1 11.4 11.1-2.8 15.4 14.1-7.4 14 7.4-2.8-15.4 11.4-11.1-15.5-2.1-7-14.3-.1.3-.2-.3zM203.7 70.2l-3.3 6.7-7.3 1 5.4 5.2-1.3 7.2 6.6-3.5 6.4 3.5L209 83l5.3-5.1-7.4-1.1-3.2-6.6zM381.6 70.2l3.3 6.7 7.3 1-5.4 5.2 1.3 7.2-6.6-3.5-6.4 3.5 1.2-7.3-5.3-5.1 7.4-1.1 3.2-6.6zM351.1 134l2.1-26.1H234.9l2.1 25.7c-47.2 2.8-96.6 9.8-144 23.6l23.3 70.1c0-6.4 224.4-36.5 355.4 0l22.8-74.6c.1.1-59.7-13.6-143.4-18.7z"></path>
        <g>
            <path d="M258.4 117.7l-5.5-.1s-.2-1.2-.2-2.5c-.1-1.2 0-2.4 0-2.4l16.9-.7s.2 1 .2 2.2c.1 1.3 0 2.6 0 2.6l-5.5.6.8 19.2s-1.4.2-2.8.2c-1.7.1-3.1 0-3.1 0l-.8-19.1zM272 111.9l14.2-.3s.2 1.1.2 2.4c0 1.1-.1 2.5-.1 2.5l-8.6.2.1 4.6 8-.2s.2 1.1.2 2.4c0 1.3-.1 2.5-.1 2.5l-8 .2.1 5.2 8.6-.2s.2 1.1.2 2.4c0 1.5-.1 2.5-.1 2.5l-14.2.3-.5-24.5zM291.5 136.1c-1.5 0-2.8-.1-2.8-.1 2.1-9.8 3.9-16.6 6.8-24.4 0 0 1.7-.1 3.3-.1 1.7 0 3.5.1 3.5.1 2.9 7.9 4.7 14.5 6.7 24.4 0 0-1.4.1-3.1.1-1.2 0-2.7-.1-2.7-.1-.3-1.8-.7-3.9-1.1-5.7h-6.6c-.4 1.8-.8 3.9-1.1 5.7 0 0-1.4.1-2.9.1zm7.3-18.7c-.8 2.5-1.6 5.6-2.2 8.1h4.5c-.6-2.7-1.4-5.7-2.2-8.1h-.1zM319 123.5c-1.8-3.2-2.2-4.7-2.2-4.7h-.2s.3 3.5-.2 17.4c0 0-1.4.1-2.6 0l-2.9-.2.8-24.4s2-.1 3.7 0l3.2.2 4.3 8.3h.1l4.7-7.9s1.4-.1 3.3 0c1.5.1 3.6.3 3.6.3l-.8 24.4s-1.5.1-2.8 0c-1.4 0-2.8-.2-2.8-.2.5-13.8 1-17.3 1-17.3h-.2s-.3 1.2-2.5 4.5l-3.2 4.8-1.6-.1-2.7-5.1z"></path>
        </g>
        <g>
            <path d="M129.2 165.3l17.5-2.5c5.9-.8 10.9 6.6 11.5 10.3.4 2.9-1.5 8.2-4.1 11.3 2.1 5 5.2 9.2 10.9 15.6 0 0-2.8.6-5.3 1-2.4.3-4.6.4-4.6.4-3.5-3.6-6.5-8.3-9.1-13.7l-4.5.6 2.1 14.7s-2.4.6-4.4.8c-2.4.3-4.4.4-4.4.4l-5.6-38.9zm17.9 14.7c1.5-.2 2.6-3.3 2.4-4.9-.3-1.8-2.3-4.4-3.6-4.2l-6.7 1 1.3 9.1 6.6-1zM163.1 180.1c-1.5-14.8 2.5-20 13.7-21.2 11.2-1.2 16.2 3.1 17.8 17.9 1.4 14-2.4 20.8-13.6 21.9-11.2 1.2-16.4-4.7-17.9-18.6zm22.7-2.4c-1-9.4-3.4-11.6-8.1-11.1-4.8.5-6.6 3.2-5.7 12.5.9 8.8 3.4 12.3 8.2 11.8 4.7-.4 6.5-4.4 5.6-13.2zM215.8 195.6c-11.3.9-16.6-3.6-17.8-18.8-1.2-15.2 3.4-20.2 14.7-21.1 7.2-.6 11.1 2.8 11.1 2.8-.8 2.3-2.2 5.1-4.2 7.2 0 0-2.2-2.1-6.1-1.8-4.6.3-6.9 2.3-6.1 12.2.8 9.9 3.4 11.7 7.9 11.3 4-.3 5.8-2.7 5.8-2.7 2.2 1.7 4.1 4.3 5.3 6.4.1-.1-3.4 3.9-10.6 4.5zM237.5 170.9l11.5-17.5s6-.3 10.7.2l-13.8 19.3 15.9 18.8c-4.5 1.3-10.9 1.6-10.9 1.6l-13-17 1.1 17.4s-2.5.3-4.4.4c-2.3.1-4.8 0-4.8 0l-2-39.4s2.5-.3 4.8-.5c1.9-.1 4.4 0 4.4 0l.5 16.7zM287.6 155.6c-1.2 2.4-2.5 4.7-4.6 7.1 0 0-3.4-2.6-7.6-2.5-3.4.1-4.4 1.3-4.3 4 .1 3.8 3.2 3.6 6.1 4 6.1.8 11.9 1.5 12.1 11.8.2 9.6-4.5 12.2-14 12.5-8.2.2-13-4.2-13-4.2 1.3-2.4 3.1-4.7 5.2-6.7 0 0 3.3 3 7.6 2.9 4.1-.1 5.4-1.1 5.3-4.3-.1-4-3.4-4-6.4-4.4-6.1-.8-11.5-1.6-11.7-11.2-.2-9.4 4.6-12.1 12.9-12.3 7.3-.1 12.4 3.3 12.4 3.3zM300.1 160.6l-8.9-.5s-.2-2-.2-4 .2-3.8.2-3.8h27.4s.2 1.7.2 3.5c0 2-.2 4.3-.2 4.3l-8.9.5v31.1s-2.3.2-4.5.2c-2.8 0-5.1-.2-5.1-.2v-31.1zM320.9 191.8c-2.3-.1-4.6-.3-4.6-.3 3.7-15.8 6.9-26.6 11.9-39.1 0 0 2.8-.1 5.3-.1 2.8.1 5.7.4 5.7.4 4.4 12.8 7 23.7 9.9 39.7 0 0-2.2.1-5 .1-1.9-.1-4.4-.3-4.4-.3-.4-2.9-1-6.3-1.5-9.2l-10.6-.3c-.7 2.9-1.4 6.3-2 9.1.1-.1-2.3.1-4.7 0zm12.5-29.9c-1.4 4-2.7 9.1-3.8 13.1l7.2.2c-.9-4.4-2.1-9.2-3.2-13.2l-.2-.1zM354.7 153.1l17.6 1.1c6 .4 9.4 8.6 9.1 12.4-.2 3-3.1 7.7-6.3 10.3 1 5.3 3.3 10 7.5 17.5 0 0-2.9 0-5.4-.1-2.4-.2-4.6-.5-4.6-.5-2.7-4.2-4.7-9.4-6.1-15.2l-4.5-.3-.9 14.8s-2.5.1-4.5-.1c-2.4-.2-4.4-.5-4.4-.5l2.5-39.4zm14.6 17.9c1.5.1 3.2-2.7 3.3-4.3.1-1.8-1.3-4.7-2.7-4.8l-6.8-.4-.6 9.2 6.8.3zM413.3 161.2c-1.6 2.2-3.1 4.3-5.5 6.4 0 0-3-3-7.2-3.5-3.4-.4-4.5.7-4.8 3.4-.4 3.7 2.7 4 5.5 4.7 6 1.6 11.6 3 10.5 13.4-1 9.5-6.1 11.5-15.5 10.5-8.1-.9-12.4-5.9-12.4-5.9 1.7-2.2 3.7-4.3 6-5.9 0 0 2.8 3.4 7.2 3.9 4 .4 5.5-.4 5.8-3.5.4-4-2.8-4.4-5.8-5.2-5.9-1.6-11.1-3.1-10.1-12.6 1-9.3 6.2-11.4 14.5-10.5 7.2.7 11.8 4.8 11.8 4.8zM435.8 201.1s-2.6-.2-4.7-.6c-2.3-.4-4.7-1-4.7-1l6.6-38.9s2.7.2 5 .6c2.1.3 4.4 1 4.4 1l-6.6 38.9zM453.5 172.7l-8.5-2.4s.2-2 .7-4c.4-1.9 1-3.7 1-3.7l26.7 5.9s-.2 1.7-.6 3.5c-.4 2-1.1 4.1-1.1 4.1l-8.8-1.4-6.7 30.4s-2.3-.3-4.5-.8c-2.7-.6-4.9-1.3-4.9-1.3l6.7-30.3z"></path>
        </g>
    </svg>
